<?xml version="1.0" encoding="UTF-8" standalone="no"?>
<svg
   xmlns:dc="http://purl.org/dc/elements/1.1/"
   xmlns:cc="http://creativecommons.org/ns#"
   xmlns:rdf="http://www.w3.org/1999/02/22-rdf-syntax-ns#"
   xmlns:svg="http://www.w3.org/2000/svg"
   xmlns="http://www.w3.org/2000/svg"
   xmlns:xlink="http://www.w3.org/1999/xlink"
   xmlns:sodipodi="http://sodipodi.sourceforge.net/DTD/sodipodi-0.dtd"
   xmlns:inkscape="http://www.inkscape.org/namespaces/inkscape"
   height="32"
   width="32"
   version="1.1"
   id="svg25"
   sodipodi:docname="folder-games.svg"
   inkscape:version="0.92.4 (5da689c313, 2019-01-14)">
  <metadata
     id="metadata31">
    <rdf:RDF>
      <cc:Work
         rdf:about="">
        <dc:format>image/svg+xml</dc:format>
        <dc:type
           rdf:resource="http://purl.org/dc/dcmitype/StillImage" />
      </cc:Work>
    </rdf:RDF>
  </metadata>
  <defs
     id="defs29">
    <linearGradient
       inkscape:collect="always"
       id="linearGradient850">
      <stop
         style="stop-color:#75aae0;stop-opacity:1"
         offset="0"
         id="stop846" />
      <stop
         style="stop-color:#1a4672;stop-opacity:1"
         offset="1"
         id="stop848" />
    </linearGradient>
    <linearGradient
       inkscape:collect="always"
       id="linearGradient842">
      <stop
         style="stop-color:#1a4672;stop-opacity:1"
         offset="0"
         id="stop838" />
      <stop
         style="stop-color:#75aae0;stop-opacity:1"
         offset="1"
         id="stop840" />
    </linearGradient>
    <linearGradient
       inkscape:collect="always"
       xlink:href="#linearGradient842"
       id="linearGradient844"
       x1="-48.355932"
       y1="18.635593"
       x2="-18.355932"
       y2="18.635593"
       gradientUnits="userSpaceOnUse"
       gradientTransform="translate(49.355932,-0.135593)" />
    <linearGradient
       inkscape:collect="always"
       xlink:href="#linearGradient850"
       id="linearGradient852"
       x1="0.91525424"
       y1="-22.016949"
       x2="28.915254"
       y2="-22.016949"
       gradientUnits="userSpaceOnUse"
       gradientTransform="translate(1.084746,29.016949)" />
  </defs>
  <sodipodi:namedview
     pagecolor="#ffffff"
     bordercolor="#666666"
     borderopacity="1"
     objecttolerance="10"
     gridtolerance="10"
     guidetolerance="10"
     inkscape:pageopacity="0"
     inkscape:pageshadow="2"
     inkscape:window-width="1920"
     inkscape:window-height="1033"
     id="namedview27"
     showgrid="false"
     inkscape:zoom="7.375"
     inkscape:cx="16"
     inkscape:cy="16"
     inkscape:window-x="0"
     inkscape:window-y="0"
     inkscape:window-maximized="1"
     inkscape:current-layer="svg25" />
  <linearGradient
     id="a"
     gradientUnits="userSpaceOnUse"
     x2="0"
     y1="29"
     y2="8"
     gradientTransform="translate(-49.355932,0.13559322)">
    <stop
       offset="0"
       stop-color="#3daee9"
       id="stop2" />
    <stop
       offset="1"
       stop-color="#6cc1ef"
       id="stop4" />
  </linearGradient>
  <path
     d="m 2.0000002,3 v 8 H 30 V 5 H 16 L 14,3 Z"
     id="path7"
     inkscape:connector-curvature="0"
     style="fill:url(#linearGradient852);fill-opacity:1;fill-rule:evenodd" />
  <path
     d="m13 8-2 1h-9v1h10z"
     fill-opacity=".235"
     fill-rule="evenodd"
     id="path9" />
  <path
     d="M 13,8.0000002 11,10 H 1 V 29 H 31 V 8.0000002 Z"
     id="path11"
     style="fill:url(#linearGradient844);fill-opacity:1"
     inkscape:connector-curvature="0" />
  <g
     id="g17"
     style="fill-opacity:0.23500001">
    <path
       d="m 13,8 -2,2 H 1 v 1 h 11 z m 1,-5 1,3 H 30 V 5 H 16 Z"
       id="path13"
       inkscape:connector-curvature="0"
       style="fill:#ffffff;fill-rule:evenodd" />
    <path
       d="m 1,28 h 30 v 1 H 1 Z"
       id="path15"
       inkscape:connector-curvature="0" />
  </g>
  <g
     id="g23"
     transform="translate(0.40677998,0.54237287)"
     style="fill:#1a4672;fill-opacity:1">
    <path
       d="m 13,17 v 1 h -1 v 1 h 1 v 1 h 1 v -1 h 1 v -1 h -1 v -1 z m 5.5,-0.1 a 0.6,0.6 0 0 0 -0.6,0.6 0.6,0.6 0 0 0 0.6,0.6 0.6,0.6 0 0 0 0.6,-0.6 0.6,0.6 0 0 0 -0.6,-0.6 z m -1,1 a 0.6,0.6 0 0 0 -0.6,0.6 0.6,0.6 0 0 0 0.6,0.6 0.6,0.6 0 0 0 0.6,-0.6 0.6,0.6 0 0 0 -0.6,-0.6 z m 2,0 a 0.6,0.6 0 0 0 -0.6,0.6 0.6,0.6 0 0 0 0.6,0.6 0.6,0.6 0 0 0 0.6,-0.6 0.6,0.6 0 0 0 -0.6,-0.6 z m -1,1 a 0.6,0.6 0 0 0 -0.6,0.6 0.6,0.6 0 0 0 0.6,0.6 0.6,0.6 0 0 0 0.6,-0.6 0.6,0.6 0 0 0 -0.6,-0.6 z"
       id="path19"
       inkscape:connector-curvature="0"
       style="fill:#1a4672;fill-opacity:1" />
    <path
       d="m 12,15 a 2,4 0 0 0 -2,4 v 2.5 a 1.5,1.5 0 0 0 2.56,1.06 l 0.944,-0.943 A 1.5,1.5 0 0 0 14.5,22 1.5,1.5 0 0 0 16,20.5 a 1.5,1.5 0 0 0 2.498,1.12 l 0.941,0.94 A 1.5,1.5 0 0 0 22,21.5 V 19 a 2,4 0 0 0 -2,-4 z m 0,1 h 8 a 1,3 0 0 1 1,3 v 2.5 a 0.5,0.5 0 0 1 -0.854,0.354 L 18.293,20 H 18 v 0.5 a 0.5,0.5 0 0 1 -1,0 V 20 h -2 v 0.5 a 0.5,0.5 0 0 1 -1,0 V 20 h -0.293 l -1.853,1.854 A 0.5,0.5 0 0 1 11,21.5 V 19 a 1,3 0 0 1 1,-3 z"
       id="path21"
       inkscape:connector-curvature="0"
       style="fill:#1a4672;fill-opacity:1" />
  </g>
</svg>
